

<svg xmlns="http://www.w3.org/2000/svg" xml:space="preserve" width="1000" height="551" data-id="lg_MjRxDvtADgKtsbs9J4" data-version="1" viewBox="0 0 2000 551" data-padding="20">
<g data-padding="0">
    <g transform="translate(10 11.952)scale(.95662)">
    <rect width="422.578" height="505.258" x="371.186" y="-366.849" stroke="#520028" stroke-width="7" rx="133" ry="133" transform="translate(400 400)scale(1.09)"/>
        <rect width="362.111" height="80.23" x="453.842" y="-164.615" fill="none" rx="0" ry="0" transform="translate(399.95 380.32)"/>
        <path fill="#f6f5f1" d="M859.448 232.19h9.44v38.05h30.53v7.89h-39.97Zm90.95 25.63v-25.63h9.44v26.62q0 4.55-1.31 7.96-1.32 3.4-3.73 5.75-2.42 2.34-5.65 3.79-3.23 1.46-7.02 2.1-3.8.64-7.99.64-4.33 0-8.24-.64-3.9-.64-7.13-2.1-3.23-1.45-5.58-3.79-2.34-2.35-3.65-5.75-1.32-3.41-1.32-7.96v-26.62h9.45v25.63q0 5.4 2.13 8.2t5.85 3.83q3.73 1.03 8.49 1.03 4.61 0 8.27-1.03t5.82-3.83q2.17-2.8 2.17-8.2m64.6 3.76h9.37q-.64 5.54-3.91 9.45-3.26 3.9-8.87 5.96t-13.35 2.06q-6.46 0-11.82-1.49t-9.23-4.48q-3.87-2.98-6-7.42-2.13-4.43-2.13-10.4 0-5.96 2.13-10.43 2.13-4.48 6-7.49 3.87-3.02 9.23-4.55 5.36-1.52 11.82-1.52 7.74 0 13.38 2.13 5.65 2.13 8.91 6.07 3.27 3.94 3.84 9.55h-9.37q-.93-2.99-3.09-5.15-2.17-2.17-5.58-3.3-3.4-1.14-8.09-1.14-5.82 0-10.22 1.81-4.41 1.81-6.82 5.33-2.41 3.51-2.41 8.69 0 5.12 2.41 8.59 2.41 3.48 6.82 5.29 4.4 1.81 10.22 1.81 4.69 0 8.06-1.13 3.37-1.14 5.54-3.27 2.16-2.13 3.16-4.97m19.96 16.55v-45.94h9.44v45.94Zm21.65-45.94h44.8v7.88h-35.35v12.35h28.96v7.39h-28.96v18.32h-9.45Zm91.02 26.77h-28.96v11.28h35.43v7.89h-44.88v-45.94h44.8v7.88h-35.35v11.43h28.96Zm25.64 19.17h-9.45v-45.94h31.17q5.33 0 9.27 1.45 3.94 1.46 6.14 4.55t2.2 7.91q0 3.27-1.14 5.54-1.13 2.27-3.16 3.69-2.02 1.42-4.65 2.17-2.62.75-5.61.96l-.99-.57q4.97.07 8.17.82 3.19.74 4.79 2.69 1.6 1.96 1.6 5.79v10.94h-9.45v-10.3q0-2.63-.92-4.08-.92-1.46-3.3-2.03-2.38-.56-6.85-.56h-17.82Zm0-37.85v13.49h21.72q3.98 0 6.07-1.91 2.1-1.92 2.1-5.19 0-3.12-2.1-4.75-2.09-1.64-6.07-1.64Z"/><rect width="142.356" height="23.73" x="563.72" y="-136.365" fill="none" rx="0" ry="0" transform="translate(399.95 170.85)"/><path fill="#f6f5f1" d="M967.178 48.36h2.84q.08.72.66 1.3.58.57 1.52.9.95.32 2.12.32 1.07 0 1.77-.23.69-.23 1.03-.65.33-.42.33-1.01 0-.56-.42-.87-.42-.3-1.32-.5t-2.37-.41q-1.16-.17-2.19-.47-1.03-.31-1.81-.79-.79-.48-1.24-1.19-.45-.7-.45-1.67 0-1.19.68-2.1.68-.9 2.02-1.4 1.35-.51 3.3-.51 2.94 0 4.53 1.25 1.58 1.25 1.54 3.44h-2.73q-.08-1.24-1.04-1.79-.95-.55-2.4-.55-1.35 0-2.22.4t-.87 1.37q0 .38.21.66t.71.49q.51.21 1.37.4t2.14.38q1.2.17 2.17.45.98.29 1.68.74.71.45 1.09 1.14.37.69.37 1.7 0 1.24-.64 2.16-.64.91-1.97 1.41-1.33.51-3.46.51-1.51 0-2.66-.33-1.16-.32-2-.87t-1.36-1.2q-.53-.65-.75-1.3t-.18-1.18m15.87 4.58V39.36h2.79v13.58Zm9.21-13.58 10.98 10.81-.88.36V39.36h2.79v13.58h-2.79l-10.98-10.73.88-.36v11.09h-2.8V39.36Zm29.21 8.69h2.77q-.19 1.64-1.15 2.79-.97 1.16-2.63 1.77t-3.95.61q-1.91 0-3.49-.45-1.59-.44-2.73-1.32-1.15-.88-1.78-2.19-.63-1.32-.63-3.08t.63-3.09q.63-1.32 1.78-2.21 1.14-.89 2.73-1.35 1.58-.45 3.49-.45 2.29 0 3.96.63t2.64 1.8q.96 1.16 1.13 2.82h-2.77q-.27-.88-.91-1.52-.65-.64-1.65-.98-1.01-.33-2.4-.33-1.72 0-3.02.53-1.3.54-2.02 1.58-.71 1.04-.71 2.57 0 1.51.71 2.54.72 1.03 2.02 1.57 1.3.53 3.02.53 1.39 0 2.39-.33.99-.34 1.63-.97t.94-1.47m16.86-.78h-8.57v3.34h10.48v2.33h-13.27V39.36h13.25v2.33h-10.46v3.38h8.57Zm16.17 2.51-3.4 1.6-.11-.53h7.84v2.1h-11.2v-2.1q1.89-.86 3.41-1.47 1.51-.61 2.56-1.1t1.61-1.01q.55-.51.55-1.14 0-.51-.29-.87-.3-.37-.93-.58t-1.63-.21q-1.33 0-2.14.51-.8.52-.85 1.4h-2.64q-.07-1.22.6-2.14.66-.93 1.94-1.45 1.28-.53 3.02-.53 1.28 0 2.33.25 1.05.24 1.82.7t1.18 1.11.41 1.47q0 .63-.24 1.15-.23.51-.72.97t-1.27.92q-.78.45-1.85.95m12.94 3.41q-1.98 0-3.48-.63t-2.34-1.83q-.84-1.21-.84-2.97 0-1.77.84-3t2.34-1.86 3.48-.63q1.97 0 3.45.63t2.32 1.86.84 3q0 1.76-.84 2.97-.84 1.2-2.32 1.83t-3.45.63m0-2.1q1.07 0 1.94-.38.87-.39 1.39-1.14.51-.74.51-1.81 0-1.08-.51-1.84-.52-.77-1.38-1.17t-1.95-.4q-1.07 0-1.96.4-.88.4-1.4 1.16-.53.75-.53 1.85 0 1.07.52 1.81.51.75 1.39 1.14.89.38 1.98.38m15.66-1.31-3.4 1.6-.1-.53h7.83v2.1h-11.19v-2.1q1.89-.86 3.4-1.47t2.56-1.1 1.61-1.01q.55-.51.55-1.14 0-.51-.29-.87-.29-.37-.92-.58t-1.64-.21q-1.33 0-2.13.51-.81.52-.85 1.4h-2.65q-.06-1.22.6-2.14.66-.93 1.94-1.45 1.28-.53 3.02-.53 1.29 0 2.34.25 1.05.24 1.81.7.77.46 1.18 1.11t.41 1.47q0 .63-.23 1.15-.23.51-.73.97-.49.46-1.27.92-.78.45-1.85.95m14.12-7.35h2.73V56h-2.73V44.64l.81.29-6.3 7.08-.39-.93h6.21v2.1h-8.29v-2.1Zm5.14 10.75h-2.75v-2.1h2.75Z"/><rect width="111.915" height="20.34" x="578.94" y="-134.67" fill="none" rx="0" ry="0" transform="translate(399.96 617.97)"/><path fill="#f6f5f1" d="M984.168 494.28v-2h9.24v2Zm8.84 4.84v-11.64h2.39v11.64Zm-10.94 0v-11.64h2.39v11.64Zm21.07.22q-1.69 0-2.98-.54-1.28-.54-2-1.58-.72-1.03-.72-2.54t.72-2.57q.72-1.05 2-1.59 1.29-.54 2.98-.54 1.7 0 2.96.54 1.27.54 1.99 1.59.72 1.06.72 2.57t-.72 2.54q-.72 1.04-1.99 1.58-1.26.54-2.96.54m0-1.8q.94 0 1.69-.33.74-.34 1.18-.98.43-.63.43-1.55t-.43-1.58q-.44-.65-1.17-1-.74-.34-1.7-.34-.93 0-1.69.34-.75.35-1.2.99-.44.65-.44 1.59 0 .92.44 1.55.43.64 1.18.98.76.33 1.71.33m6.77-5.53v-1.82h6.95v1.82Zm2.31 7.12v-11.39h2.34v11.39Zm14.83.19q-1.33 0-2.42-.58-1.09-.59-1.73-1.64t-.64-2.44q0-1.42.65-2.47.65-1.04 1.75-1.63 1.11-.58 2.51-.58 1.55 0 2.5.62.94.62 1.37 1.68.44 1.07.44 2.38 0 .79-.26 1.61-.25.82-.77 1.51-.52.7-1.37 1.12-.84.42-2.03.42m.75-1.8q1.07 0 1.84-.36t1.19-1.01q.41-.64.41-1.49 0-.92-.42-1.56t-1.19-.97q-.76-.33-1.83-.33-1.49 0-2.32.78t-.83 2.08q0 .86.4 1.5t1.11 1 1.64.36m3.44-.7v-6.64h2.34v8.94h-2.18l-.04-.35q-.05-.35-.08-.89-.04-.54-.04-1.06m4.11-.67h2.16q.19.62.81 1 .63.39 1.63.39.69 0 1.07-.13.37-.12.52-.37.14-.24.14-.54 0-.38-.23-.59-.24-.21-.72-.33-.49-.13-1.24-.24-.76-.12-1.46-.3t-1.24-.48-.86-.76q-.31-.45-.31-1.12 0-.65.31-1.15.32-.51.88-.85.57-.34 1.33-.52.77-.18 1.65-.18 1.33 0 2.22.39.88.38 1.32 1.08.44.69.44 1.59h-2.07q-.14-.67-.58-.96-.43-.3-1.33-.3-.88 0-1.33.27t-.45.74q0 .38.28.58.28.21.83.34.55.12 1.37.27.71.14 1.34.32.64.18 1.15.46.5.28.8.74t.3 1.16q0 .86-.5 1.46-.49.59-1.41.9-.92.32-2.2.32-1.13 0-1.95-.24-.82-.25-1.36-.63-.54-.39-.84-.83-.29-.44-.4-.84-.11-.39-.07-.65m25.37 2.97h-2.34v-4.91q0-.74-.25-1.22-.26-.49-.81-.74-.54-.25-1.46-.25-.88 0-1.6.33t-1.17.86-.51 1.13l-.02-.99q.09-.6.42-1.19.32-.59.86-1.08t1.31-.78q.76-.3 1.72-.3.82 0 1.53.21.7.2 1.22.64.52.43.81 1.07t.29 1.5Zm-8.01 0h-2.34v-12.54h2.34Zm18.28-2.97h2.26q-.14.92-.76 1.64t-1.68 1.14q-1.07.41-2.6.41-1.71 0-3.02-.55t-2.05-1.59q-.74-1.05-.74-2.52 0-1.48.72-2.53t2.01-1.61q1.28-.56 3.01-.56 1.77 0 2.94.56t1.73 1.68q.57 1.13.48 2.87h-8.53q.09.69.51 1.24.42.56 1.15.89.73.32 1.74.32 1.12 0 1.86-.39.75-.38.97-1m-2.96-4.39q-1.29 0-2.1.57t-1.05 1.39h6.09q-.09-.9-.86-1.43-.76-.53-2.08-.53m7.19 7.36v-12.54h2.34v12.54Zm4.87 0v-12.54h2.34v12.54Zm5.17-3.62v-8.3h2.38v8.3Zm-.16 1.58h2.72v2.05h-2.72Zm-201.46-390.016a9.3 9.3 0 0 0-9.3 9.3v.155q-.744-.155-1.55-.155a7.75 7.75 0 0 0-7.105 10.85 7.75 7.75 0 0 0 8.655 10.695v.155a9.3 9.3 0 0 0 18.08 3.075 9.3 9.3 0 0 0 14.055-4.966 7.75 7.75 0 0 0 12.672-7.322h1.693l6.2-.087v-1.55l-6.2-1.637h-1.693q.137-.707.143-1.463a7.75 7.75 0 0 0-12.815-5.859 9.3 9.3 0 0 0-14.056-4.972 9.3 9.3 0 0 0-8.779-6.219m-10.85 12.574q.459 0 .899.086l4.005.819-.08-4.092v-.106a6.01 6.01 0 0 1 3.46-5.425c.793 2.828 2.219 8.643 2.448 14.657h-14.96q-.248-.707-.248-1.463a4.483 4.483 0 0 1 4.476-4.476m4.824 18.45v-.117l.08-4.086-4.005.819q-.44.093-.899.086a4.483 4.483 0 0 1-4.228-5.94h14.96c-.235 6.002-1.655 11.824-2.449 14.658a6.01 6.01 0 0 1-3.46-5.42m6.709 5.959c.868-3.112 2.257-9.002 2.474-15.196h10.651c-.285 4.067-1.519 7.98-2.281 10.075a6 6 0 0 1-.93-.496l-3.51-2.356-1.394 3.986a6.01 6.01 0 0 1-5.01 3.987m31.694-13.733a4.483 4.483 0 0 1-7.402 3.385l-3.782-3.273-1.488 4.774a6.01 6.01 0 0 1-4.861 4.172 41 41 0 0 0 2.238-10.521h15.047q.248.707.248 1.463m-12.66-11.092 1.482 4.774 3.782-3.267a4.47 4.47 0 0 1 7.155 4.848h-15.055c-.248-4.154-1.389-8.097-2.232-10.521a6.01 6.01 0 0 1 4.86 4.166m-14.017-4.854 1.395 3.992 3.509-2.356q.446-.297.93-.496c.762 2.09 1.996 5.996 2.275 10.07h-10.639c-.217-6.195-1.612-12.085-2.474-15.197a6.01 6.01 0 0 1 5.004 3.987m296.819 33.158a9.3 9.3 0 0 0 9.3-9.3v-.155q.744.155 1.55.155a7.75 7.75 0 0 0 7.105-10.85 7.75 7.75 0 0 0-8.655-10.695v-.155a9.3 9.3 0 0 0-18.08-3.075 9.3 9.3 0 0 0-14.055 4.966 7.75 7.75 0 0 0-12.672 7.322h-1.693l-6.2.087v1.55l6.2 1.637h1.693q-.137.707-.143 1.463a7.75 7.75 0 0 0 12.815 5.859 9.3 9.3 0 0 0 14.056 4.972 9.3 9.3 0 0 0 8.779 6.219m10.85-12.574q-.459 0-.899-.086l-4.005-.819.08 4.092v.106a6.01 6.01 0 0 1-3.46 5.425c-.793-2.828-2.219-8.643-2.448-14.657h14.96q.248.707.248 1.463a4.483 4.483 0 0 1-4.476 4.476m-4.824-18.45v.117l-.08 4.086 4.005-.819q.44-.093.899-.086a4.483 4.483 0 0 1 4.228 5.94h-14.96c.235-6.002 1.655-11.824 2.449-14.658a6.01 6.01 0 0 1 3.46 5.42m-6.709-5.959c-.868 3.112-2.257 9.002-2.474 15.196h-10.651c.285-4.067 1.519-7.98 2.281-10.075a6 6 0 0 1 .93.496l3.51 2.356 1.394-3.986a6.01 6.01 0 0 1 5.01-3.987m-31.694 13.733a4.483 4.483 0 0 1 7.402-3.385l3.782 3.273 1.488-4.774a6.01 6.01 0 0 1 4.861-4.172 41 41 0 0 0-2.238 10.521h-15.047q-.248-.707-.248-1.463m12.66 11.092-1.482-4.774-3.782 3.267a4.47 4.47 0 0 1-7.155-4.848h15.054c.248 4.154 1.389 8.097 2.232 10.521a6.01 6.01 0 0 1-4.86-4.166m14.017 4.854-1.395-3.992-3.509 2.356q-.446.297-.93.496c-.762-2.09-1.996-5.996-2.275-10.07h10.639c.217 6.195 1.612 12.085 2.474 15.197a6.01 6.01 0 0 1-5.004-3.987m-133.188 224.349 21.264-18.325a3.9 3.9 0 0 0 1.357-2.631l.283-3.092a1.18 1.18 0 0 1 2.077-.637l2.502 3.044a33 33 0 0 0 4.094 4.19l16.803 16.354a24.07 24.07 0 0 0 23.73 5.865l23.813-7.045a19 19 0 0 1 17.664 3.705l.283-.177a14.2 14.2 0 0 1 3.033-1.345q2.136-.673 4.46-.732a17.7 17.7 0 0 1 7.86 1.629l.27.118.272.141.212.118.272.13.283.154.248.153a14 14 0 0 1 1.487.944 21.2 21.2 0 0 1 5.026 4.897 21.2 21.2 0 0 1 3.151 6.337l.165.566.118.484.248.92q.98 3.694 1.912 7.375l.472 1.853.118.425.082.354.236.731a20.06 20.06 0 0 0 4.838 7.847 15.3 15.3 0 0 0 4.13 3.198l1.003.555c4.685 2.808 2.514 9.782.508 8.98-7.151-2.396-14.066-8.379-16.898-13.7a27 27 0 0 1-2.148-5.228l-.153-.566-.118-.496-.472-1.852q-.92-3.706-1.782-7.399l-.224-.944-.106-.425-.083-.354a13 13 0 0 0-1.746-3.93 14.2 14.2 0 0 0-3.835-3.87l-.154-.094-.13-.083-.141-.094-.212-.118-.307-.177-.65-.354q-.672-.33-1.356-.614a18.9 18.9 0 0 0-6.054-1.38l-.578-.036a19 19 0 0 1 1.487 18.538l-1.652 3.623a4.248 4.248 0 0 0 4.06 5.994l6.442-.33a4.01 4.01 0 0 1 4.2 4.106l-.66 24.45a1.95 1.95 0 0 0 1.558 1.982l4.944 1.039 3.776 8.932-2.549.177-10.962-6.75a3.66 3.66 0 0 1-1.735-2.867l-1.25-17.346a4.413 4.413 0 0 0-4.803-4.083l-6.136.531a8.3 8.3 0 0 1-2.761-.26l-4.661-1.285a1.475 1.475 0 0 0-1.617 2.265l4.224 6.077a3.693 3.693 0 0 1-.826 5.074l-23.222 17.417a2.48 2.48 0 0 0-.885 2.714l.531 1.77-9.96 3.776.685-5.841 20.414-20.119a5.074 5.074 0 0 0 .39-6.809l-8.095-9.994a4.96 4.96 0 0 0-5.24-1.652l-23.245 6.679a3.15 3.15 0 0 0-2.006 4.295l2.265 5.617a9.4 9.4 0 0 1 .637 3.422l-.082 6.23a12.5 12.5 0 0 0 1.416 5.935l5.746 11.045a1.735 1.735 0 0 1-.826 2.384l-2.324 1.062q-.33.39-.437.897s-.047.672.06.979l.684 2.041-10.644 4.473.342-2.75 5.664-7.505a3.54 3.54 0 0 0 .26-3.221l-13.405-31.388a7.8 7.8 0 0 0-3.092-3.61l-2.006-1.252a6.96 6.96 0 0 0-6.395-.483l-11.387 5.57a.944.944 0 0 0-.154 1.64l15.035 10.111a2.24 2.24 0 0 0 2.678-.142l2.832-2.36 6.526 7.552-2.408 1.039-8.543-.272a7.1 7.1 0 0 1-3.823-1.262l-22.007-15.328a2.797 2.797 0 0 1 .059-4.65l14.254-9.416a4.06 4.06 0 0 0 1.652-4.602l-6.478-20.803a2.36 2.36 0 0 0-2.289-1.688h-6.56a10.6 10.6 0 0 0-6.078 1.924l-1.286.908a6.077 6.077 0 0 1-7.47-9.57m-25.389-.239-21.264-18.325a3.9 3.9 0 0 1-1.357-2.631l-.283-3.092a1.18 1.18 0 0 0-2.077-.637l-2.502 3.044a33 33 0 0 1-4.094 4.19l-16.803 16.354a24.07 24.07 0 0 1-23.73 5.865l-23.813-7.045a19 19 0 0 0-17.664 3.705l-.283-.177a14.2 14.2 0 0 0-3.033-1.345q-2.136-.673-4.46-.732a17.7 17.7 0 0 0-7.86 1.629l-.27.118-.272.141-.212.118-.272.13-.283.154-.248.153a14 14 0 0 0-1.487.944 21.2 21.2 0 0 0-5.026 4.897 21.2 21.2 0 0 0-3.151 6.337l-.165.566-.118.484-.248.92q-.98 3.694-1.912 7.375l-.472 1.853-.118.425-.082.354-.236.731a20.06 20.06 0 0 1-4.838 7.847 15.3 15.3 0 0 1-4.13 3.198l-1.003.555c-4.685 2.808-2.514 9.782-.508 8.98 7.151-2.396 14.066-8.379 16.898-13.7a27 27 0 0 0 2.148-5.228l.153-.566.118-.496.472-1.852q.92-3.706 1.782-7.399l.224-.944.106-.425.083-.354a13 13 0 0 1 1.746-3.93 14.2 14.2 0 0 1 3.835-3.87l.154-.094.13-.083.141-.094.212-.118.307-.177.65-.354q.672-.33 1.356-.614a18.9 18.9 0 0 1 6.054-1.38l.578-.036a19 19 0 0 0-1.487 18.538l1.652 3.623a4.248 4.248 0 0 1-4.06 5.994l-6.442-.33a4.01 4.01 0 0 0-4.2 4.106l.66 24.45a1.95 1.95 0 0 1-1.558 1.982l-4.944 1.039-3.776 8.932 2.549.177 10.962-6.75a3.66 3.66 0 0 0 1.735-2.867l1.25-17.346a4.413 4.413 0 0 1 4.803-4.083l6.136.531a8.3 8.3 0 0 0 2.761-.26l4.661-1.285a1.475 1.475 0 0 1 1.617 2.265l-4.224 6.077a3.693 3.693 0 0 0 .826 5.074l23.222 17.417a2.48 2.48 0 0 1 .885 2.714l-.531 1.77 9.96 3.776-.685-5.841-20.414-20.119a5.074 5.074 0 0 1-.39-6.809l8.095-9.994a4.96 4.96 0 0 1 5.24-1.652l23.245 6.679a3.15 3.15 0 0 1 2.006 4.295l-2.265 5.617a9.4 9.4 0 0 0-.637 3.422l.082 6.23a12.5 12.5 0 0 1-1.416 5.935l-5.746 11.045a1.735 1.735 0 0 0 .826 2.384l2.324 1.062q.33.39.437.897s.047.672-.06.979l-.684 2.041 10.644 4.473-.342-2.75-5.664-7.505a3.54 3.54 0 0 1-.26-3.221l13.405-31.388a7.8 7.8 0 0 1 3.092-3.61l2.006-1.252a6.96 6.96 0 0 1 6.395-.483l11.387 5.57a.944.944 0 0 1 .154 1.64L982.938 423a2.24 2.24 0 0 1-2.678-.142l-2.832-2.358-6.526 7.552 2.408 1.039 8.543-.272a7.1 7.1 0 0 0 3.823-1.262l22.007-15.328a2.797 2.797 0 0 0-.059-4.65l-14.254-9.416a4.06 4.06 0 0 1-1.652-4.602l6.478-20.803a2.36 2.36 0 0 1 2.289-1.688h6.56a10.6 10.6 0 0 1 6.078 1.924l1.286.908a6.077 6.077 0 0 0 7.47-9.57"/><path fill="#f6f5f1" stroke="#000" stroke-width="1.655" d="M981.736 161.958s-3.156 3.983-2.19 6.053 5.135 5.13 7.002 4.259c2.025-.945 10.454-9.892 9.491-11.955s-9.216 1.78-19.8-20.9a22.794 22.794 0 0 1 6.232-27.276c-2.877.018-4.817-2.592-9.57-9.508-10.606 10.036-13.978 26.589-7.94 39.527 7.7 16.5 16.774 19.8 16.774 19.8m9.706-67.979c2.247 8.084 3.002 11.248 1.14 13.442a22.79 22.79 0 0 1 24.904 12.737c10.588 22.687 2.338 26.537 3.3 28.6s13.178 1.385 15.263.412 2.22-5.986 1.233-8.101-6.046-2.211-6.046-2.211 3.3-9.076-4.4-25.576c-6.037-12.937-20.89-20.985-35.394-19.303"/><path fill="#f6f5f1" stroke="#000" stroke-width="1.655" d="m990.048 94.164-.337-1.231c-.388-1.418-5.77.18-9.213 1.787s-8.125 4.705-7.288 5.912l.727 1.05c7.125 10.375 7.313 10.287 13.305 7.49s6.177-2.891 2.805-15.008m-4.736 10.869c-3.548 1.655-5.095-.134-6.054-2.19-.627-1.342-.273-2.384 3.17-3.99s4.482-1.179 5.095.134c.959 2.055 1.336 4.39-2.211 6.046"/><path fill="#f6f5f1" stroke="#000" stroke-width="1.66" d="M1006.822 142.865s-4.557 2.282-4.557 4.573 2.49 6.839 4.557 6.839c2.241 0 13.695-4.557 13.695-6.84s-9.13-2.29-9.13-27.39a22.86 22.86 0 0 1 17.23-22.144c-2.622-1.203-3.278-4.399-4.664-12.699-13.894 4.624-23.978 18.236-23.978 32.553 0 18.26 6.847 25.108 6.847 25.108m37.649-57.66c-1.386 8.3-2.042 11.495-4.665 12.698a22.86 22.86 0 0 1 17.231 22.137c0 25.107-9.13 25.107-9.13 27.39s11.388 6.847 13.695 6.847 4.557-4.499 4.557-6.84c0-2.34-4.557-4.573-4.557-4.573s6.848-6.847 6.848-25.107c0-14.317-10.085-27.93-23.98-32.553"/><path fill="#f6f5f1" stroke="#000" stroke-width="1.66" d="m1043.126 84.781.216-1.262c.249-1.452-5.32-2.282-9.13-2.282s-9.379.83-9.13 2.282l.216 1.262c2.075 12.45 2.282 12.45 8.914 12.45s6.84-.008 8.914-12.45m-8.914 7.868c-3.926 0-4.573-2.282-4.573-4.556 0-1.486.763-2.283 4.573-2.283s4.573.83 4.573 2.283c0 2.274-.647 4.556-4.573 4.556"/><path fill="#f6f5f1" stroke="#000" stroke-width="1.657" d="M1040.974 140.83s-5.08.278-5.991 2.376-.44 7.252 1.453 8.074c2.052.891 14.352 1.273 15.26-.817s-7.45-5.728 2.53-28.71a22.82 22.82 0 0 1 24.581-13.426c-1.923-2.145-1.253-5.332.778-13.483-14.56-1.291-29.207 7.163-34.899 20.274-7.26 16.72-3.713 25.712-3.713 25.712m57.4-37.828c-4.57 7.048-6.44 9.714-9.321 9.773a22.82 22.82 0 0 1 6.977 27.12c-9.983 22.99-18.343 19.36-19.25 21.45s7.704 10.798 9.817 11.715 5.961-2.307 6.892-4.45c.93-2.144-2.355-6-2.355-6s8.993-3.548 16.253-20.268c5.692-13.11 1.87-29.583-9.014-39.34"/><path fill="#f6f5f1" stroke="#000" stroke-width="1.657" d="m1097.309 102.08.7-1.07c.805-1.231-3.965-4.205-7.453-5.72s-8.918-2.969-9.268-1.54l-.304 1.241c-3.05 12.225-2.86 12.308 3.213 14.944s6.266 2.712 13.112-7.856m-11.29 3.661c-3.595-1.56-3.28-3.908-2.376-5.99.59-1.361 1.606-1.787 5.095-.272s3.857 2.578 3.28 3.908c-.904 2.082-2.405 3.915-6 2.354"/></g><path fill="transparent" stroke="transparent" d="M769.5 0h461v551h-461z"/></g></svg>